<mxfile host="Electron" modified="2023-05-22T19:23:14.976Z" agent="Mozilla/5.0 (Macintosh; Intel Mac OS X 10_15_7) AppleWebKit/537.36 (KHTML, like Gecko) draw.io/21.2.8 Chrome/112.0.5615.165 Electron/24.2.0 Safari/537.36" etag="tBhag77mqb2DHOgyLAHd" version="21.2.8" type="device">
  <diagram name="Страница 1" id="rtaRMse3TKiSxMAd5PeK">
    <mxGraphModel dx="2785" dy="2315" grid="1" gridSize="10" guides="1" tooltips="1" connect="1" arrows="1" fold="1" page="1" pageScale="1" pageWidth="2339" pageHeight="3300" math="0" shadow="0">
      <root>
        <mxCell id="0" />
        <mxCell id="1" parent="0" />
        <mxCell id="Ud-DBkoRJGGcoXjBl8Z2-2" value="Actor" style="shape=note;size=20;whiteSpace=wrap;html=1;fillColor=#fff2cc;strokeColor=#d6b656;" parent="1" vertex="1">
          <mxGeometry x="80" y="2460" width="100" height="100" as="geometry" />
        </mxCell>
        <mxCell id="Ud-DBkoRJGGcoXjBl8Z2-3" value="Command" style="shape=note;size=20;whiteSpace=wrap;html=1;fillColor=#dae8fc;strokeColor=#6c8ebf;" parent="1" vertex="1">
          <mxGeometry x="80" y="2580" width="100" height="100" as="geometry" />
        </mxCell>
        <mxCell id="Ud-DBkoRJGGcoXjBl8Z2-4" value="Event" style="shape=note;size=20;whiteSpace=wrap;html=1;fillColor=#ffcc99;strokeColor=#36393d;" parent="1" vertex="1">
          <mxGeometry x="80" y="2700" width="100" height="100" as="geometry" />
        </mxCell>
        <mxCell id="Ud-DBkoRJGGcoXjBl8Z2-5" value="Policy" style="shape=note;size=20;whiteSpace=wrap;html=1;fillColor=#e1d5e7;strokeColor=#9673a6;" parent="1" vertex="1">
          <mxGeometry x="80" y="2820" width="100" height="100" as="geometry" />
        </mxCell>
        <mxCell id="Ud-DBkoRJGGcoXjBl8Z2-6" value="External system" style="shape=note;size=20;whiteSpace=wrap;html=1;fillColor=#ffcccc;strokeColor=#36393d;" parent="1" vertex="1">
          <mxGeometry x="80" y="2940" width="100" height="100" as="geometry" />
        </mxCell>
        <mxCell id="Ud-DBkoRJGGcoXjBl8Z2-7" value="Read model" style="shape=note;size=20;whiteSpace=wrap;html=1;fillColor=#60a917;strokeColor=#2D7600;fontColor=#ffffff;" parent="1" vertex="1">
          <mxGeometry x="80" y="3060" width="100" height="100" as="geometry" />
        </mxCell>
        <mxCell id="Ud-DBkoRJGGcoXjBl8Z2-8" value="Commentary" style="shape=note;size=20;whiteSpace=wrap;html=1;" parent="1" vertex="1">
          <mxGeometry x="80" y="3180" width="100" height="100" as="geometry" />
        </mxCell>
        <mxCell id="Ud-DBkoRJGGcoXjBl8Z2-9" value="Клиент" style="shape=note;size=20;whiteSpace=wrap;html=1;fillColor=#fff2cc;strokeColor=#d6b656;" parent="1" vertex="1">
          <mxGeometry x="320" y="800" width="100" height="100" as="geometry" />
        </mxCell>
        <mxCell id="Ud-DBkoRJGGcoXjBl8Z2-10" value="Менеджер" style="shape=note;size=20;whiteSpace=wrap;html=1;fillColor=#fff2cc;strokeColor=#d6b656;" parent="1" vertex="1">
          <mxGeometry x="320" y="920" width="100" height="100" as="geometry" />
        </mxCell>
        <mxCell id="Ud-DBkoRJGGcoXjBl8Z2-11" value="Регистрация в системе" style="shape=note;size=20;whiteSpace=wrap;html=1;fillColor=#dae8fc;strokeColor=#6c8ebf;" parent="1" vertex="1">
          <mxGeometry x="440" y="870" width="100" height="100" as="geometry" />
        </mxCell>
        <mxCell id="Ud-DBkoRJGGcoXjBl8Z2-12" value="Пользователь зарегистрирован" style="shape=note;size=20;whiteSpace=wrap;html=1;fillColor=#ffcc99;strokeColor=#36393d;" parent="1" vertex="1">
          <mxGeometry x="560" y="870" width="100" height="100" as="geometry" />
        </mxCell>
        <mxCell id="Ud-DBkoRJGGcoXjBl8Z2-13" value="Доступные услуги" style="shape=note;size=20;whiteSpace=wrap;html=1;fillColor=#60a917;strokeColor=#2D7600;fontColor=#ffffff;" parent="1" vertex="1">
          <mxGeometry x="320" y="1080" width="100" height="100" as="geometry" />
        </mxCell>
        <mxCell id="Ud-DBkoRJGGcoXjBl8Z2-14" value="Менеджер" style="shape=note;size=20;whiteSpace=wrap;html=1;fillColor=#fff2cc;strokeColor=#d6b656;" parent="1" vertex="1">
          <mxGeometry x="440" y="1080" width="100" height="100" as="geometry" />
        </mxCell>
        <mxCell id="Ud-DBkoRJGGcoXjBl8Z2-15" value="Редактировать типы услуг и примерную стоимость" style="shape=note;size=20;whiteSpace=wrap;html=1;fillColor=#dae8fc;strokeColor=#6c8ebf;" parent="1" vertex="1">
          <mxGeometry x="560" y="1080" width="100" height="100" as="geometry" />
        </mxCell>
        <mxCell id="Ud-DBkoRJGGcoXjBl8Z2-16" value="Изменена информация по доступным услугам" style="shape=note;size=20;whiteSpace=wrap;html=1;fillColor=#ffcc99;strokeColor=#36393d;" parent="1" vertex="1">
          <mxGeometry x="680" y="1080" width="100" height="100" as="geometry" />
        </mxCell>
        <mxCell id="Ud-DBkoRJGGcoXjBl8Z2-17" value="Наборы тестов для воркеров" style="shape=note;size=20;whiteSpace=wrap;html=1;fillColor=#60a917;strokeColor=#2D7600;fontColor=#ffffff;" parent="1" vertex="1">
          <mxGeometry x="320" y="1680" width="100" height="100" as="geometry" />
        </mxCell>
        <mxCell id="Ud-DBkoRJGGcoXjBl8Z2-18" value="Менеджер" style="shape=note;size=20;whiteSpace=wrap;html=1;fillColor=#fff2cc;strokeColor=#d6b656;" parent="1" vertex="1">
          <mxGeometry x="440" y="1680" width="100" height="100" as="geometry" />
        </mxCell>
        <mxCell id="Ud-DBkoRJGGcoXjBl8Z2-19" value="Редактировать набор тестов под вакансию/исполнителя" style="shape=note;size=20;whiteSpace=wrap;html=1;fillColor=#dae8fc;strokeColor=#6c8ebf;" parent="1" vertex="1">
          <mxGeometry x="560" y="1680" width="100" height="100" as="geometry" />
        </mxCell>
        <mxCell id="Ud-DBkoRJGGcoXjBl8Z2-20" value="Тесты сохранены" style="shape=note;size=20;whiteSpace=wrap;html=1;fillColor=#ffcc99;strokeColor=#36393d;" parent="1" vertex="1">
          <mxGeometry x="680" y="1680" width="100" height="100" as="geometry" />
        </mxCell>
        <mxCell id="Ud-DBkoRJGGcoXjBl8Z2-22" value="Сохранить статистику" style="shape=note;size=20;whiteSpace=wrap;html=1;fillColor=#dae8fc;strokeColor=#6c8ebf;" parent="1" vertex="1">
          <mxGeometry x="2160" y="1830" width="100" height="100" as="geometry" />
        </mxCell>
        <mxCell id="Ud-DBkoRJGGcoXjBl8Z2-24" value="Статистика сохранена" style="shape=note;size=20;whiteSpace=wrap;html=1;fillColor=#ffcc99;strokeColor=#36393d;" parent="1" vertex="1">
          <mxGeometry x="2280" y="1830" width="100" height="100" as="geometry" />
        </mxCell>
        <mxCell id="Ud-DBkoRJGGcoXjBl8Z2-27" value="Доступные услуги" style="shape=note;size=20;whiteSpace=wrap;html=1;fillColor=#60a917;strokeColor=#2D7600;fontColor=#ffffff;" parent="1" vertex="1">
          <mxGeometry x="320" y="1220" width="100" height="100" as="geometry" />
        </mxCell>
        <mxCell id="Ud-DBkoRJGGcoXjBl8Z2-28" value="Клиент" style="shape=note;size=20;whiteSpace=wrap;html=1;fillColor=#fff2cc;strokeColor=#d6b656;" parent="1" vertex="1">
          <mxGeometry x="440" y="1220" width="100" height="100" as="geometry" />
        </mxCell>
        <mxCell id="Ud-DBkoRJGGcoXjBl8Z2-29" value="Заказать услугу" style="shape=note;size=20;whiteSpace=wrap;html=1;fillColor=#dae8fc;strokeColor=#6c8ebf;" parent="1" vertex="1">
          <mxGeometry x="560" y="1220" width="100" height="100" as="geometry" />
        </mxCell>
        <mxCell id="Ud-DBkoRJGGcoXjBl8Z2-30" value="Заказ принят системой" style="shape=note;size=20;whiteSpace=wrap;html=1;fillColor=#ffcc99;strokeColor=#36393d;" parent="1" vertex="1">
          <mxGeometry x="680" y="1220" width="100" height="100" as="geometry" />
        </mxCell>
        <mxCell id="Ud-DBkoRJGGcoXjBl8Z2-37" value="Рассчитать стоимость услуги завершенных заказов" style="shape=note;size=20;whiteSpace=wrap;html=1;fillColor=#dae8fc;strokeColor=#6c8ebf;" parent="1" vertex="1">
          <mxGeometry x="1680" y="2320" width="100" height="100" as="geometry" />
        </mxCell>
        <mxCell id="-yi3KkNUhXpzI3Yxlqe2-89" style="edgeStyle=orthogonalEdgeStyle;rounded=0;orthogonalLoop=1;jettySize=auto;html=1;exitX=0;exitY=0;exitDx=100;exitDy=20;exitPerimeter=0;entryX=0.003;entryY=0.801;entryDx=0;entryDy=0;entryPerimeter=0;" parent="1" source="Ud-DBkoRJGGcoXjBl8Z2-38" edge="1">
          <mxGeometry relative="1" as="geometry">
            <mxPoint x="2080.2999999999997" y="2340.1" as="targetPoint" />
          </mxGeometry>
        </mxCell>
        <mxCell id="Ud-DBkoRJGGcoXjBl8Z2-38" value="Инвойс выставлен" style="shape=note;size=20;whiteSpace=wrap;html=1;fillColor=#ffcc99;strokeColor=#36393d;" parent="1" vertex="1">
          <mxGeometry x="1800" y="2320" width="100" height="100" as="geometry" />
        </mxCell>
        <mxCell id="Ud-DBkoRJGGcoXjBl8Z2-41" value="100 котоединиц в первой версии системы" style="shape=note;size=20;whiteSpace=wrap;html=1;" parent="1" vertex="1">
          <mxGeometry x="1700" y="2230" width="100" height="100" as="geometry" />
        </mxCell>
        <mxCell id="Ud-DBkoRJGGcoXjBl8Z2-45" value="Воркер" style="shape=note;size=20;whiteSpace=wrap;html=1;fillColor=#fff2cc;strokeColor=#d6b656;" parent="1" vertex="1">
          <mxGeometry x="560" y="1840" width="100" height="100" as="geometry" />
        </mxCell>
        <mxCell id="Ud-DBkoRJGGcoXjBl8Z2-50" value="Подать заявку на тестирование" style="shape=note;size=20;whiteSpace=wrap;html=1;fillColor=#dae8fc;strokeColor=#6c8ebf;" parent="1" vertex="1">
          <mxGeometry x="680" y="1840" width="100" height="100" as="geometry" />
        </mxCell>
        <mxCell id="Ud-DBkoRJGGcoXjBl8Z2-52" value="Заявка отправлена менеджеру" style="shape=note;size=20;whiteSpace=wrap;html=1;fillColor=#ffcc99;strokeColor=#36393d;" parent="1" vertex="1">
          <mxGeometry x="800" y="1840" width="100" height="100" as="geometry" />
        </mxCell>
        <mxCell id="Ud-DBkoRJGGcoXjBl8Z2-58" value="Воркер" style="shape=note;size=20;whiteSpace=wrap;html=1;fillColor=#fff2cc;strokeColor=#d6b656;" parent="1" vertex="1">
          <mxGeometry x="440" y="1980" width="100" height="100" as="geometry" />
        </mxCell>
        <mxCell id="Ud-DBkoRJGGcoXjBl8Z2-59" value="Назначенные тесты" style="shape=note;size=20;whiteSpace=wrap;html=1;fillColor=#60a917;strokeColor=#2D7600;fontColor=#ffffff;" parent="1" vertex="1">
          <mxGeometry x="320" y="1980" width="100" height="100" as="geometry" />
        </mxCell>
        <mxCell id="Ud-DBkoRJGGcoXjBl8Z2-60" value="Пройти тестирование" style="shape=note;size=20;whiteSpace=wrap;html=1;fillColor=#dae8fc;strokeColor=#6c8ebf;" parent="1" vertex="1">
          <mxGeometry x="560" y="1980" width="100" height="100" as="geometry" />
        </mxCell>
        <mxCell id="Ud-DBkoRJGGcoXjBl8Z2-61" value="Решенные тесты отправлены на проверку" style="shape=note;size=20;whiteSpace=wrap;html=1;fillColor=#ffcc99;strokeColor=#36393d;" parent="1" vertex="1">
          <mxGeometry x="680" y="1980" width="100" height="100" as="geometry" />
        </mxCell>
        <mxCell id="Ud-DBkoRJGGcoXjBl8Z2-64" value="Менеджер" style="shape=note;size=20;whiteSpace=wrap;html=1;fillColor=#fff2cc;strokeColor=#d6b656;" parent="1" vertex="1">
          <mxGeometry x="440" y="2180" width="100" height="100" as="geometry" />
        </mxCell>
        <mxCell id="Ud-DBkoRJGGcoXjBl8Z2-65" value="Решенные тесты" style="shape=note;size=20;whiteSpace=wrap;html=1;fillColor=#60a917;strokeColor=#2D7600;fontColor=#ffffff;" parent="1" vertex="1">
          <mxGeometry x="320" y="2180" width="100" height="100" as="geometry" />
        </mxCell>
        <mxCell id="Ud-DBkoRJGGcoXjBl8Z2-66" value="Принять решение о найме" style="shape=note;size=20;whiteSpace=wrap;html=1;fillColor=#dae8fc;strokeColor=#6c8ebf;" parent="1" vertex="1">
          <mxGeometry x="560" y="2180" width="100" height="100" as="geometry" />
        </mxCell>
        <mxCell id="Ud-DBkoRJGGcoXjBl8Z2-69" value="Отправлено уведомление об отказе" style="shape=note;size=20;whiteSpace=wrap;html=1;fillColor=#ffcc99;strokeColor=#36393d;" parent="1" vertex="1">
          <mxGeometry x="680" y="2120" width="100" height="100" as="geometry" />
        </mxCell>
        <mxCell id="Ud-DBkoRJGGcoXjBl8Z2-71" value="Воркер и характеристики добавлены в пул" style="shape=note;size=20;whiteSpace=wrap;html=1;fillColor=#ffcc99;strokeColor=#36393d;" parent="1" vertex="1">
          <mxGeometry x="680" y="2260" width="100" height="100" as="geometry" />
        </mxCell>
        <mxCell id="Ud-DBkoRJGGcoXjBl8Z2-75" value="Крон" style="shape=note;size=20;whiteSpace=wrap;html=1;fillColor=#ffcccc;strokeColor=#36393d;" parent="1" vertex="1">
          <mxGeometry x="1560" y="1840" width="100" height="100" as="geometry" />
        </mxCell>
        <mxCell id="Ud-DBkoRJGGcoXjBl8Z2-76" value="Заказ провален" style="shape=note;size=20;whiteSpace=wrap;html=1;fillColor=#ffcc99;strokeColor=#36393d;" parent="1" vertex="1">
          <mxGeometry x="1680" y="1840" width="100" height="100" as="geometry" />
        </mxCell>
        <mxCell id="Ud-DBkoRJGGcoXjBl8Z2-150" style="edgeStyle=orthogonalEdgeStyle;rounded=0;orthogonalLoop=1;jettySize=auto;html=1;entryX=-0.004;entryY=0.804;entryDx=0;entryDy=0;entryPerimeter=0;" parent="1" target="Ud-DBkoRJGGcoXjBl8Z2-85" edge="1">
          <mxGeometry relative="1" as="geometry">
            <Array as="points">
              <mxPoint x="1780" y="1890" />
              <mxPoint x="1885" y="1890" />
              <mxPoint x="1885" y="1800" />
            </Array>
            <mxPoint x="1780" y="1890" as="sourcePoint" />
          </mxGeometry>
        </mxCell>
        <mxCell id="Ud-DBkoRJGGcoXjBl8Z2-147" style="edgeStyle=orthogonalEdgeStyle;rounded=0;orthogonalLoop=1;jettySize=auto;html=1;exitX=1;exitY=0.496;exitDx=0;exitDy=0;exitPerimeter=0;entryX=0;entryY=0.5;entryDx=0;entryDy=0;entryPerimeter=0;" parent="1" source="Ud-DBkoRJGGcoXjBl8Z2-85" edge="1">
          <mxGeometry relative="1" as="geometry">
            <mxPoint x="2160" y="1630" as="targetPoint" />
            <Array as="points">
              <mxPoint x="2130" y="1770" />
            </Array>
          </mxGeometry>
        </mxCell>
        <mxCell id="-yi3KkNUhXpzI3Yxlqe2-81" style="edgeStyle=orthogonalEdgeStyle;rounded=0;orthogonalLoop=1;jettySize=auto;html=1;exitX=1;exitY=0.502;exitDx=0;exitDy=0;exitPerimeter=0;entryX=0;entryY=0.5;entryDx=0;entryDy=0;entryPerimeter=0;" parent="1" source="Ud-DBkoRJGGcoXjBl8Z2-85" target="-yi3KkNUhXpzI3Yxlqe2-83" edge="1">
          <mxGeometry relative="1" as="geometry">
            <mxPoint x="2325" y="1770.454545454545" as="targetPoint" />
            <Array as="points" />
          </mxGeometry>
        </mxCell>
        <mxCell id="-yi3KkNUhXpzI3Yxlqe2-90" style="edgeStyle=orthogonalEdgeStyle;rounded=0;orthogonalLoop=1;jettySize=auto;html=1;exitX=1;exitY=0.706;exitDx=0;exitDy=0;exitPerimeter=0;entryX=0;entryY=0.5;entryDx=0;entryDy=0;entryPerimeter=0;" parent="1" source="Ud-DBkoRJGGcoXjBl8Z2-85" target="Ud-DBkoRJGGcoXjBl8Z2-22" edge="1">
          <mxGeometry relative="1" as="geometry">
            <Array as="points">
              <mxPoint x="2130" y="1791" />
              <mxPoint x="2130" y="1880" />
            </Array>
          </mxGeometry>
        </mxCell>
        <mxCell id="Ud-DBkoRJGGcoXjBl8Z2-85" value="Изменился статус заказа" style="shape=note;size=20;whiteSpace=wrap;html=1;fillColor=#ffcc99;strokeColor=#36393d;" parent="1" vertex="1">
          <mxGeometry x="1990" y="1720" width="100" height="100" as="geometry" />
        </mxCell>
        <mxCell id="Ud-DBkoRJGGcoXjBl8Z2-94" value="Автоматически подобрать воркера" style="shape=note;size=20;whiteSpace=wrap;html=1;fillColor=#dae8fc;strokeColor=#6c8ebf;" parent="1" vertex="1">
          <mxGeometry x="800" y="1220" width="100" height="100" as="geometry" />
        </mxCell>
        <mxCell id="Ud-DBkoRJGGcoXjBl8Z2-100" value="Отправлено уведомление менеджеру и воркеру" style="shape=note;size=20;whiteSpace=wrap;html=1;fillColor=#ffcc99;strokeColor=#36393d;" parent="1" vertex="1">
          <mxGeometry x="840" y="2260" width="100" height="100" as="geometry" />
        </mxCell>
        <mxCell id="Ud-DBkoRJGGcoXjBl8Z2-102" value="Отправлено уведомление менеджеру" style="shape=note;size=20;whiteSpace=wrap;html=1;fillColor=#ffcc99;strokeColor=#36393d;" parent="1" vertex="1">
          <mxGeometry x="840" y="1980" width="100" height="100" as="geometry" />
        </mxCell>
        <mxCell id="xn1PDHLfSFUzA9ciQ5ag-4" style="edgeStyle=orthogonalEdgeStyle;rounded=0;orthogonalLoop=1;jettySize=auto;html=1;exitX=0.5;exitY=0;exitDx=0;exitDy=0;exitPerimeter=0;entryX=-0.001;entryY=0.602;entryDx=0;entryDy=0;entryPerimeter=0;" parent="1" source="nli2GmcNwLdQZTsaDCb6-1" target="Ud-DBkoRJGGcoXjBl8Z2-128" edge="1">
          <mxGeometry relative="1" as="geometry">
            <Array as="points">
              <mxPoint x="970" y="1110" />
            </Array>
          </mxGeometry>
        </mxCell>
        <mxCell id="nli2GmcNwLdQZTsaDCb6-2" style="edgeStyle=orthogonalEdgeStyle;rounded=0;orthogonalLoop=1;jettySize=auto;html=1;exitX=0;exitY=0;exitDx=100;exitDy=60;exitPerimeter=0;" parent="1" source="nli2GmcNwLdQZTsaDCb6-1" target="-yi3KkNUhXpzI3Yxlqe2-6" edge="1">
          <mxGeometry relative="1" as="geometry">
            <mxPoint x="1140" y="1280" as="sourcePoint" />
          </mxGeometry>
        </mxCell>
        <mxCell id="Ud-DBkoRJGGcoXjBl8Z2-111" value="Сотрудник отдела расходников" style="shape=note;size=20;whiteSpace=wrap;html=1;fillColor=#fff2cc;strokeColor=#d6b656;" parent="1" vertex="1">
          <mxGeometry x="1640" y="1230" width="100" height="100" as="geometry" />
        </mxCell>
        <mxCell id="Ud-DBkoRJGGcoXjBl8Z2-115" value="Воркер оповощен о готовности расходников" style="shape=note;size=20;whiteSpace=wrap;html=1;fillColor=#ffcc99;strokeColor=#36393d;" parent="1" vertex="1">
          <mxGeometry x="1879" y="1230" width="100" height="100" as="geometry" />
        </mxCell>
        <mxCell id="Ud-DBkoRJGGcoXjBl8Z2-120" value="Клиент уведомлен о результате оплаты и сумме" style="shape=note;size=20;whiteSpace=wrap;html=1;fillColor=#ffcc99;strokeColor=#36393d;" parent="1" vertex="1">
          <mxGeometry x="2260" y="2350" width="100" height="100" as="geometry" />
        </mxCell>
        <mxCell id="xn1PDHLfSFUzA9ciQ5ag-28" style="edgeStyle=orthogonalEdgeStyle;rounded=0;orthogonalLoop=1;jettySize=auto;html=1;exitX=0.5;exitY=1;exitDx=0;exitDy=0;exitPerimeter=0;entryX=0.5;entryY=0;entryDx=0;entryDy=0;entryPerimeter=0;" parent="1" source="Ud-DBkoRJGGcoXjBl8Z2-128" target="Ud-DBkoRJGGcoXjBl8Z2-111" edge="1">
          <mxGeometry relative="1" as="geometry" />
        </mxCell>
        <mxCell id="Ud-DBkoRJGGcoXjBl8Z2-128" value="Поставщик печенья" style="shape=note;size=20;whiteSpace=wrap;html=1;fillColor=#ffcccc;strokeColor=#36393d;" parent="1" vertex="1">
          <mxGeometry x="1640" y="1050" width="100" height="100" as="geometry" />
        </mxCell>
        <mxCell id="Ud-DBkoRJGGcoXjBl8Z2-130" value="Собрать расходники" style="shape=note;size=20;whiteSpace=wrap;html=1;fillColor=#cce5ff;strokeColor=#36393d;" parent="1" vertex="1">
          <mxGeometry x="1760" y="1230" width="100" height="100" as="geometry" />
        </mxCell>
        <mxCell id="Ud-DBkoRJGGcoXjBl8Z2-149" style="edgeStyle=orthogonalEdgeStyle;rounded=0;orthogonalLoop=1;jettySize=auto;html=1;exitX=0;exitY=0;exitDx=100;exitDy=60;exitPerimeter=0;entryX=0.008;entryY=0.215;entryDx=0;entryDy=0;entryPerimeter=0;" parent="1" source="Ud-DBkoRJGGcoXjBl8Z2-137" target="Ud-DBkoRJGGcoXjBl8Z2-85" edge="1">
          <mxGeometry relative="1" as="geometry">
            <Array as="points">
              <mxPoint x="1780" y="1650" />
              <mxPoint x="1885" y="1650" />
              <mxPoint x="1885" y="1742" />
            </Array>
          </mxGeometry>
        </mxCell>
        <mxCell id="Ud-DBkoRJGGcoXjBl8Z2-137" value="Отметить начало работы над заказом" style="shape=note;size=20;whiteSpace=wrap;html=1;fillColor=#dae8fc;strokeColor=#6c8ebf;" parent="1" vertex="1">
          <mxGeometry x="1680" y="1600" width="100" height="100" as="geometry" />
        </mxCell>
        <mxCell id="Ud-DBkoRJGGcoXjBl8Z2-143" value="Воркер" style="shape=note;size=20;whiteSpace=wrap;html=1;fillColor=#fff2cc;strokeColor=#d6b656;" parent="1" vertex="1">
          <mxGeometry x="1560" y="1660" width="100" height="100" as="geometry" />
        </mxCell>
        <mxCell id="Ud-DBkoRJGGcoXjBl8Z2-148" style="edgeStyle=orthogonalEdgeStyle;rounded=0;orthogonalLoop=1;jettySize=auto;html=1;exitX=0;exitY=0;exitDx=100;exitDy=60;exitPerimeter=0;entryX=0;entryY=0.5;entryDx=0;entryDy=0;entryPerimeter=0;" parent="1" source="Ud-DBkoRJGGcoXjBl8Z2-144" target="Ud-DBkoRJGGcoXjBl8Z2-85" edge="1">
          <mxGeometry relative="1" as="geometry">
            <Array as="points">
              <mxPoint x="1780" y="1770" />
            </Array>
          </mxGeometry>
        </mxCell>
        <mxCell id="Ud-DBkoRJGGcoXjBl8Z2-144" value="Отметить выполнение заказа" style="shape=note;size=20;whiteSpace=wrap;html=1;fillColor=#dae8fc;strokeColor=#6c8ebf;" parent="1" vertex="1">
          <mxGeometry x="1680" y="1720" width="100" height="100" as="geometry" />
        </mxCell>
        <mxCell id="Ud-DBkoRJGGcoXjBl8Z2-159" style="edgeStyle=orthogonalEdgeStyle;rounded=0;orthogonalLoop=1;jettySize=auto;html=1;entryX=0;entryY=0.5;entryDx=0;entryDy=0;entryPerimeter=0;" parent="1" target="Ud-DBkoRJGGcoXjBl8Z2-100" edge="1">
          <mxGeometry relative="1" as="geometry">
            <mxPoint x="780" y="2309.76" as="sourcePoint" />
            <mxPoint x="840" y="2309.76" as="targetPoint" />
            <Array as="points">
              <mxPoint x="820" y="2310" />
            </Array>
          </mxGeometry>
        </mxCell>
        <mxCell id="-yi3KkNUhXpzI3Yxlqe2-6" value="Данные по заказу и воркеру" style="shape=note;size=20;whiteSpace=wrap;html=1;fillColor=#60a917;strokeColor=#2D7600;fontColor=#ffffff;" parent="1" vertex="1">
          <mxGeometry x="1520" y="1230" width="100" height="100" as="geometry" />
        </mxCell>
        <mxCell id="-yi3KkNUhXpzI3Yxlqe2-26" value="Истек срок выполнения заказа" style="shape=note;size=20;whiteSpace=wrap;html=1;" parent="1" vertex="1">
          <mxGeometry x="1570" y="1910" width="100" height="100" as="geometry" />
        </mxCell>
        <mxCell id="-yi3KkNUhXpzI3Yxlqe2-39" value="Крон" style="shape=note;size=20;whiteSpace=wrap;html=1;fillColor=#ffcccc;strokeColor=#36393d;" parent="1" vertex="1">
          <mxGeometry x="1440" y="2320" width="100" height="100" as="geometry" />
        </mxCell>
        <mxCell id="-yi3KkNUhXpzI3Yxlqe2-42" style="edgeStyle=orthogonalEdgeStyle;rounded=0;orthogonalLoop=1;jettySize=auto;html=1;entryX=0;entryY=0.5;entryDx=0;entryDy=0;entryPerimeter=0;" parent="1" target="-yi3KkNUhXpzI3Yxlqe2-56" edge="1">
          <mxGeometry relative="1" as="geometry">
            <mxPoint x="1900" y="2369.71" as="sourcePoint" />
            <mxPoint x="1960" y="2370" as="targetPoint" />
            <Array as="points">
              <mxPoint x="2030" y="2370" />
              <mxPoint x="2030" y="2460" />
            </Array>
          </mxGeometry>
        </mxCell>
        <mxCell id="-yi3KkNUhXpzI3Yxlqe2-45" value="Рассчитать гонорар воркера с учетом штрафов и зачислений от менеджеров" style="shape=note;size=20;whiteSpace=wrap;html=1;fillColor=#dae8fc;strokeColor=#6c8ebf;" parent="1" vertex="1">
          <mxGeometry x="1680" y="2550" width="100" height="100" as="geometry" />
        </mxCell>
        <mxCell id="-yi3KkNUhXpzI3Yxlqe2-88" style="edgeStyle=orthogonalEdgeStyle;rounded=0;orthogonalLoop=1;jettySize=auto;html=1;exitX=0;exitY=0;exitDx=100;exitDy=60;exitPerimeter=0;entryX=0;entryY=0.5;entryDx=0;entryDy=0;entryPerimeter=0;" parent="1" source="-yi3KkNUhXpzI3Yxlqe2-46" edge="1">
          <mxGeometry relative="1" as="geometry">
            <mxPoint x="2080" y="2610" as="targetPoint" />
          </mxGeometry>
        </mxCell>
        <mxCell id="-yi3KkNUhXpzI3Yxlqe2-46" value="Оплата оправлена" style="shape=note;size=20;whiteSpace=wrap;html=1;fillColor=#ffcc99;strokeColor=#36393d;" parent="1" vertex="1">
          <mxGeometry x="1800" y="2550" width="100" height="100" as="geometry" />
        </mxCell>
        <mxCell id="-yi3KkNUhXpzI3Yxlqe2-50" value="Крон" style="shape=note;size=20;whiteSpace=wrap;html=1;fillColor=#ffcccc;strokeColor=#36393d;" parent="1" vertex="1">
          <mxGeometry x="1440" y="2550" width="100" height="100" as="geometry" />
        </mxCell>
        <mxCell id="-yi3KkNUhXpzI3Yxlqe2-53" style="edgeStyle=orthogonalEdgeStyle;rounded=0;orthogonalLoop=1;jettySize=auto;html=1;entryX=0;entryY=0.5;entryDx=0;entryDy=0;entryPerimeter=0;" parent="1" target="-yi3KkNUhXpzI3Yxlqe2-56" edge="1">
          <mxGeometry relative="1" as="geometry">
            <mxPoint x="1900" y="2599.71" as="sourcePoint" />
            <mxPoint x="1960" y="2600" as="targetPoint" />
            <Array as="points">
              <mxPoint x="2030" y="2600" />
              <mxPoint x="2030" y="2460" />
            </Array>
          </mxGeometry>
        </mxCell>
        <mxCell id="-yi3KkNUhXpzI3Yxlqe2-56" value="Платежная система" style="shape=note;size=20;whiteSpace=wrap;html=1;fillColor=#ffcccc;strokeColor=#36393d;" parent="1" vertex="1">
          <mxGeometry x="2080" y="2410" width="100" height="100" as="geometry" />
        </mxCell>
        <mxCell id="-yi3KkNUhXpzI3Yxlqe2-57" value="Воркер уведомлен о результате перевода и сумме" style="shape=note;size=20;whiteSpace=wrap;html=1;fillColor=#ffcc99;strokeColor=#36393d;" parent="1" vertex="1">
          <mxGeometry x="2260" y="2470" width="100" height="100" as="geometry" />
        </mxCell>
        <mxCell id="-yi3KkNUhXpzI3Yxlqe2-59" style="edgeStyle=orthogonalEdgeStyle;rounded=0;orthogonalLoop=1;jettySize=auto;html=1;exitX=1;exitY=0.4;exitDx=0;exitDy=0;exitPerimeter=0;" parent="1" source="-yi3KkNUhXpzI3Yxlqe2-56" edge="1">
          <mxGeometry relative="1" as="geometry">
            <mxPoint x="2180" y="2431" as="sourcePoint" />
            <mxPoint x="2260" y="2400" as="targetPoint" />
            <Array as="points">
              <mxPoint x="2220" y="2450" />
              <mxPoint x="2220" y="2400" />
            </Array>
          </mxGeometry>
        </mxCell>
        <mxCell id="-yi3KkNUhXpzI3Yxlqe2-70" value="Наступило время оплаты воркеров" style="shape=note;size=20;whiteSpace=wrap;html=1;fillColor=#ffcc99;strokeColor=#36393d;" parent="1" vertex="1">
          <mxGeometry x="1560" y="2550" width="100" height="100" as="geometry" />
        </mxCell>
        <mxCell id="-yi3KkNUhXpzI3Yxlqe2-73" value="Наступило время списания" style="shape=note;size=20;whiteSpace=wrap;html=1;fillColor=#ffcc99;strokeColor=#36393d;" parent="1" vertex="1">
          <mxGeometry x="1560" y="2320" width="100" height="100" as="geometry" />
        </mxCell>
        <mxCell id="-yi3KkNUhXpzI3Yxlqe2-74" style="edgeStyle=orthogonalEdgeStyle;rounded=0;orthogonalLoop=1;jettySize=auto;html=1;exitX=1;exitY=0.4;exitDx=0;exitDy=0;exitPerimeter=0;" parent="1" edge="1">
          <mxGeometry relative="1" as="geometry">
            <mxPoint x="2180" y="2470" as="sourcePoint" />
            <mxPoint x="2260" y="2520" as="targetPoint" />
            <Array as="points">
              <mxPoint x="2220" y="2470" />
              <mxPoint x="2220" y="2520" />
            </Array>
          </mxGeometry>
        </mxCell>
        <mxCell id="-yi3KkNUhXpzI3Yxlqe2-76" value="Список активных заказов" style="shape=note;size=20;whiteSpace=wrap;html=1;fillColor=#60a917;strokeColor=#2D7600;fontColor=#ffffff;" parent="1" vertex="1">
          <mxGeometry x="2681.5" y="1580" width="100" height="100" as="geometry" />
        </mxCell>
        <mxCell id="-yi3KkNUhXpzI3Yxlqe2-77" value="Менеджер" style="shape=note;size=20;whiteSpace=wrap;html=1;fillColor=#fff2cc;strokeColor=#d6b656;" parent="1" vertex="1">
          <mxGeometry x="2801.5" y="1580" width="100" height="100" as="geometry" />
        </mxCell>
        <mxCell id="-yi3KkNUhXpzI3Yxlqe2-78" value="Сделать ставку" style="shape=note;size=20;whiteSpace=wrap;html=1;fillColor=#cce5ff;strokeColor=#36393d;" parent="1" vertex="1">
          <mxGeometry x="2921.5" y="1580" width="100" height="100" as="geometry" />
        </mxCell>
        <mxCell id="-yi3KkNUhXpzI3Yxlqe2-79" value="Ставка принята" style="shape=note;size=20;whiteSpace=wrap;html=1;fillColor=#ffcc99;strokeColor=#36393d;" parent="1" vertex="1">
          <mxGeometry x="3041.5" y="1580" width="100" height="100" as="geometry" />
        </mxCell>
        <mxCell id="-yi3KkNUhXpzI3Yxlqe2-82" value="Рассчитать выигрыш" style="shape=note;size=20;whiteSpace=wrap;html=1;fillColor=#cce5ff;strokeColor=#36393d;" parent="1" vertex="1">
          <mxGeometry x="2801.5" y="1720" width="100" height="100" as="geometry" />
        </mxCell>
        <mxCell id="-yi3KkNUhXpzI3Yxlqe2-83" value="Заказ завершен с любым статусом" style="shape=note;size=20;whiteSpace=wrap;html=1;fillColor=#e1d5e7;strokeColor=#9673a6;" parent="1" vertex="1">
          <mxGeometry x="2681.5" y="1720" width="100" height="100" as="geometry" />
        </mxCell>
        <mxCell id="-yi3KkNUhXpzI3Yxlqe2-84" value="Уведомить победивших и проигравших" style="shape=note;size=20;whiteSpace=wrap;html=1;fillColor=#ffcc99;strokeColor=#36393d;" parent="1" vertex="1">
          <mxGeometry x="2921.5" y="1720" width="100" height="100" as="geometry" />
        </mxCell>
        <mxCell id="-yi3KkNUhXpzI3Yxlqe2-99" value="ВСЕ НОТИФИКАЦИИ ОТПРАВЛЯЮТСЯ ТОЛЬКО ПО ПОЧТЕ" style="shape=note;size=20;whiteSpace=wrap;html=1;fontSize=14;" parent="1" vertex="1">
          <mxGeometry x="240" y="2960" width="400" height="240" as="geometry" />
        </mxCell>
        <mxCell id="-yi3KkNUhXpzI3Yxlqe2-100" value="Нотификация отправлена воркеру, клиенту и менеджеру" style="shape=note;size=20;whiteSpace=wrap;html=1;fillColor=#ffcc99;strokeColor=#36393d;" parent="1" vertex="1">
          <mxGeometry x="2160" y="1580" width="100" height="100" as="geometry" />
        </mxCell>
        <mxCell id="-yi3KkNUhXpzI3Yxlqe2-101" value="Воркер уведомлен о переводе" style="shape=note;size=20;whiteSpace=wrap;html=1;fillColor=#ffcc99;strokeColor=#36393d;" parent="1" vertex="1">
          <mxGeometry x="2080" y="2550" width="100" height="100" as="geometry" />
        </mxCell>
        <mxCell id="-yi3KkNUhXpzI3Yxlqe2-102" value="Клиент уведомлен об инвойсе" style="shape=note;size=20;whiteSpace=wrap;html=1;fillColor=#ffcc99;strokeColor=#36393d;" parent="1" vertex="1">
          <mxGeometry x="2080" y="2280" width="100" height="100" as="geometry" />
        </mxCell>
        <mxCell id="-yi3KkNUhXpzI3Yxlqe2-105" value="Данные о заказе" style="shape=note;size=20;whiteSpace=wrap;html=1;fillColor=#60a917;strokeColor=#2D7600;fontColor=#ffffff;" parent="1" vertex="1">
          <mxGeometry x="1440" y="1660" width="100" height="100" as="geometry" />
        </mxCell>
        <mxCell id="xn1PDHLfSFUzA9ciQ5ag-13" value="" style="verticalLabelPosition=bottom;verticalAlign=top;html=1;shape=mxgraph.basic.rounded_frame;dx=3;whiteSpace=wrap;fillColor=#000000;" parent="1" vertex="1">
          <mxGeometry x="240" y="1600" width="780" height="840" as="geometry" />
        </mxCell>
        <mxCell id="xn1PDHLfSFUzA9ciQ5ag-14" value="Отбор воркеров" style="text;html=1;strokeColor=none;fillColor=none;align=center;verticalAlign=middle;whiteSpace=wrap;rounded=0;" parent="1" vertex="1">
          <mxGeometry x="240" y="1610" width="120" height="30" as="geometry" />
        </mxCell>
        <mxCell id="xn1PDHLfSFUzA9ciQ5ag-15" value="Содержит весь процесс отбора исполнителей и формирование тестов.&amp;nbsp;&lt;br&gt;Процесс замкнутый и не затрагивает другие контексты." style="text;html=1;strokeColor=none;fillColor=none;align=left;verticalAlign=middle;whiteSpace=wrap;rounded=0;" parent="1" vertex="1">
          <mxGeometry x="870" y="1610" width="150" height="90" as="geometry" />
        </mxCell>
        <mxCell id="xn1PDHLfSFUzA9ciQ5ag-16" value="" style="verticalLabelPosition=bottom;verticalAlign=top;html=1;shape=mxgraph.basic.rounded_frame;dx=3;whiteSpace=wrap;fillColor=#000000;" parent="1" vertex="1">
          <mxGeometry x="1362.5" y="2160" width="1107.5" height="560" as="geometry" />
        </mxCell>
        <mxCell id="xn1PDHLfSFUzA9ciQ5ag-17" value="Платежные операции" style="text;html=1;strokeColor=none;fillColor=none;align=center;verticalAlign=middle;whiteSpace=wrap;rounded=0;" parent="1" vertex="1">
          <mxGeometry x="1372.5" y="2170" width="130" height="30" as="geometry" />
        </mxCell>
        <mxCell id="xn1PDHLfSFUzA9ciQ5ag-18" value="Сгруппировано по типу выполняемых операций. Так как все эти действия могут выполняться асинхронно, нет необходимости в связях с другими контекстами." style="text;html=1;strokeColor=none;fillColor=none;align=left;verticalAlign=middle;whiteSpace=wrap;rounded=0;" parent="1" vertex="1">
          <mxGeometry x="2282.5" y="2180" width="150" height="90" as="geometry" />
        </mxCell>
        <mxCell id="xn1PDHLfSFUzA9ciQ5ag-19" value="" style="verticalLabelPosition=bottom;verticalAlign=top;html=1;shape=mxgraph.basic.rounded_frame;dx=3;whiteSpace=wrap;fillColor=#000000;" parent="1" vertex="1">
          <mxGeometry x="240" y="720" width="1040" height="680" as="geometry" />
        </mxCell>
        <mxCell id="xn1PDHLfSFUzA9ciQ5ag-20" value="Заказ услуг" style="text;html=1;strokeColor=none;fillColor=none;align=center;verticalAlign=middle;whiteSpace=wrap;rounded=0;" parent="1" vertex="1">
          <mxGeometry x="240" y="720" width="120" height="30" as="geometry" />
        </mxCell>
        <mxCell id="xn1PDHLfSFUzA9ciQ5ag-21" value="События выбраны по наличию влияния на заказ услуг и формирование заказа (тип, постановка, подбор сотрудника)." style="text;html=1;strokeColor=none;fillColor=none;align=left;verticalAlign=middle;whiteSpace=wrap;rounded=0;" parent="1" vertex="1">
          <mxGeometry x="840" y="720" width="240" height="90" as="geometry" />
        </mxCell>
        <mxCell id="xn1PDHLfSFUzA9ciQ5ag-29" value="" style="verticalLabelPosition=bottom;verticalAlign=top;html=1;shape=mxgraph.basic.rounded_frame;dx=3;whiteSpace=wrap;strokeColor=#000000;fillColor=#000000;" parent="1" vertex="1">
          <mxGeometry x="1440" y="880" width="620" height="520" as="geometry" />
        </mxCell>
        <mxCell id="xn1PDHLfSFUzA9ciQ5ag-30" value="Сборка и выдача расходников" style="text;html=1;strokeColor=none;fillColor=none;align=center;verticalAlign=middle;whiteSpace=wrap;rounded=0;" parent="1" vertex="1">
          <mxGeometry x="1440" y="885" width="120" height="30" as="geometry" />
        </mxCell>
        <mxCell id="xn1PDHLfSFUzA9ciQ5ag-31" value="Сгруппировано по типу операций и месту их выполнения, подбор расходников - отдельный асинхронный процесс." style="text;html=1;strokeColor=none;fillColor=none;align=left;verticalAlign=middle;whiteSpace=wrap;rounded=0;" parent="1" vertex="1">
          <mxGeometry x="1800" y="885" width="260" height="60" as="geometry" />
        </mxCell>
        <mxCell id="xn1PDHLfSFUzA9ciQ5ag-32" value="" style="verticalLabelPosition=bottom;verticalAlign=top;html=1;shape=mxgraph.basic.rounded_frame;dx=3;whiteSpace=wrap;strokeColor=#000000;fillColor=#000000;" parent="1" vertex="1">
          <mxGeometry x="2602" y="1480" width="621" height="430" as="geometry" />
        </mxCell>
        <mxCell id="xn1PDHLfSFUzA9ciQ5ag-33" value="Система мотивации" style="text;html=1;strokeColor=none;fillColor=none;align=center;verticalAlign=middle;whiteSpace=wrap;rounded=0;" parent="1" vertex="1">
          <mxGeometry x="2612.5" y="1490" width="120" height="30" as="geometry" />
        </mxCell>
        <mxCell id="xn1PDHLfSFUzA9ciQ5ag-34" value="Сгруппировано по смысловой нагрузки. Происходит асинхронно и не влияет на основные бизнес процессы, поэтому вынесено в отдельный контекст." style="text;html=1;strokeColor=none;fillColor=none;align=left;verticalAlign=middle;whiteSpace=wrap;rounded=0;" parent="1" vertex="1">
          <mxGeometry x="2945" y="1490" width="270" height="60" as="geometry" />
        </mxCell>
        <mxCell id="xn1PDHLfSFUzA9ciQ5ag-35" value="" style="verticalLabelPosition=bottom;verticalAlign=top;html=1;shape=mxgraph.basic.rounded_frame;dx=3;whiteSpace=wrap;strokeColor=#000000;fillColor=#000000;" parent="1" vertex="1">
          <mxGeometry x="1360" y="1510" width="1105" height="570" as="geometry" />
        </mxCell>
        <mxCell id="xn1PDHLfSFUzA9ciQ5ag-36" value="Выполнение заказа" style="text;html=1;strokeColor=none;fillColor=none;align=center;verticalAlign=middle;whiteSpace=wrap;rounded=0;" parent="1" vertex="1">
          <mxGeometry x="1372.5" y="1515" width="120" height="30" as="geometry" />
        </mxCell>
        <mxCell id="xn1PDHLfSFUzA9ciQ5ag-37" value="Сгруппировано по типу операций. Выполняется асинхронно в отрыве от остальных контекстов системы." style="text;html=1;strokeColor=none;fillColor=none;align=left;verticalAlign=middle;whiteSpace=wrap;rounded=0;" parent="1" vertex="1">
          <mxGeometry x="2165" y="1510" width="320" height="60" as="geometry" />
        </mxCell>
        <mxCell id="yuws-XZROliTaUHE_H3o-1" style="edgeStyle=orthogonalEdgeStyle;rounded=0;orthogonalLoop=1;jettySize=auto;html=1;entryX=0;entryY=0.5;entryDx=0;entryDy=0;entryPerimeter=0;" parent="1" edge="1">
          <mxGeometry relative="1" as="geometry">
            <mxPoint x="780" y="2030" as="sourcePoint" />
            <mxPoint x="840" y="2030.2399999999998" as="targetPoint" />
            <Array as="points">
              <mxPoint x="820" y="2030.2399999999998" />
            </Array>
          </mxGeometry>
        </mxCell>
        <mxCell id="nli2GmcNwLdQZTsaDCb6-3" style="edgeStyle=orthogonalEdgeStyle;rounded=0;orthogonalLoop=1;jettySize=auto;html=1;exitX=0.5;exitY=1;exitDx=0;exitDy=0;exitPerimeter=0;entryX=0;entryY=0.5;entryDx=0;entryDy=0;entryPerimeter=0;" parent="1" source="nli2GmcNwLdQZTsaDCb6-1" target="-yi3KkNUhXpzI3Yxlqe2-105" edge="1">
          <mxGeometry relative="1" as="geometry">
            <Array as="points">
              <mxPoint x="970" y="1440" />
              <mxPoint x="1200" y="1440" />
              <mxPoint x="1200" y="1710" />
            </Array>
          </mxGeometry>
        </mxCell>
        <mxCell id="nli2GmcNwLdQZTsaDCb6-1" value="Заказ сформирован" style="shape=note;size=20;whiteSpace=wrap;html=1;fillColor=#ffcc99;strokeColor=#36393d;" parent="1" vertex="1">
          <mxGeometry x="920" y="1220" width="100" height="100" as="geometry" />
        </mxCell>
        <mxCell id="nli2GmcNwLdQZTsaDCb6-4" value="Менеджер" style="shape=note;size=20;whiteSpace=wrap;html=1;fillColor=#fff2cc;strokeColor=#d6b656;" parent="1" vertex="1">
          <mxGeometry x="2801.5" y="2060" width="100" height="100" as="geometry" />
        </mxCell>
        <mxCell id="nli2GmcNwLdQZTsaDCb6-5" value="Список отмененных и проваленных заказов" style="shape=note;size=20;whiteSpace=wrap;html=1;fillColor=#60a917;strokeColor=#2D7600;fontColor=#ffffff;" parent="1" vertex="1">
          <mxGeometry x="2681.5" y="2200" width="100" height="100" as="geometry" />
        </mxCell>
        <mxCell id="nli2GmcNwLdQZTsaDCb6-6" value="Проверить качество работы случайно выбранного заказа" style="shape=note;size=20;whiteSpace=wrap;html=1;fillColor=#dae8fc;strokeColor=#6c8ebf;" parent="1" vertex="1">
          <mxGeometry x="2921.5" y="2060" width="100" height="100" as="geometry" />
        </mxCell>
        <mxCell id="nli2GmcNwLdQZTsaDCb6-7" value="Список выполненных заказов" style="shape=note;size=20;whiteSpace=wrap;html=1;fillColor=#60a917;strokeColor=#2D7600;fontColor=#ffffff;" parent="1" vertex="1">
          <mxGeometry x="2681.5" y="2060" width="100" height="100" as="geometry" />
        </mxCell>
        <mxCell id="nli2GmcNwLdQZTsaDCb6-8" value="Менеджер" style="shape=note;size=20;whiteSpace=wrap;html=1;fillColor=#fff2cc;strokeColor=#d6b656;" parent="1" vertex="1">
          <mxGeometry x="2801.5" y="2200" width="100" height="100" as="geometry" />
        </mxCell>
        <mxCell id="nli2GmcNwLdQZTsaDCb6-9" value="Понять что случилось и как исправить" style="shape=note;size=20;whiteSpace=wrap;html=1;fillColor=#dae8fc;strokeColor=#6c8ebf;" parent="1" vertex="1">
          <mxGeometry x="2921.5" y="2200" width="100" height="100" as="geometry" />
        </mxCell>
        <mxCell id="nli2GmcNwLdQZTsaDCb6-12" value="Результаты сохранены и&amp;nbsp; отправлены воркеру и клиенту" style="shape=note;size=20;whiteSpace=wrap;html=1;fillColor=#ffcc99;strokeColor=#36393d;" parent="1" vertex="1">
          <mxGeometry x="3041" y="2130" width="100" height="100" as="geometry" />
        </mxCell>
        <mxCell id="nli2GmcNwLdQZTsaDCb6-13" value="Контроль качества" style="text;html=1;strokeColor=none;fillColor=none;align=center;verticalAlign=middle;whiteSpace=wrap;rounded=0;" parent="1" vertex="1">
          <mxGeometry x="2612.5" y="1990" width="120" height="30" as="geometry" />
        </mxCell>
        <mxCell id="nli2GmcNwLdQZTsaDCb6-14" value="Сгруппировано по типу выполняемых операций. Так как все эти действия могут выполняться асинхронно, нет необходимости в связях с другими контекстами." style="text;html=1;strokeColor=none;fillColor=none;align=left;verticalAlign=middle;whiteSpace=wrap;rounded=0;" parent="1" vertex="1">
          <mxGeometry x="3160" y="2000" width="150" height="90" as="geometry" />
        </mxCell>
        <mxCell id="nli2GmcNwLdQZTsaDCb6-15" value="" style="verticalLabelPosition=bottom;verticalAlign=top;html=1;shape=mxgraph.basic.rounded_frame;dx=3;whiteSpace=wrap;strokeColor=#000000;fillColor=#000000;" parent="1" vertex="1">
          <mxGeometry x="2602" y="1980" width="718" height="400" as="geometry" />
        </mxCell>
      </root>
    </mxGraphModel>
  </diagram>
</mxfile>
